<svg xmlns="http://www.w3.org/2000/svg" width="1200" height="630" viewBox="0 0 1200 630" role="img" aria-label="SpendWise">
  <defs>
    <linearGradient id="bg" x1="0%" y1="0%" x2="100%" y2="100%">
      <stop offset="0%" stop-color="#0f172a"/>
      <stop offset="100%" stop-color="#1e3a5f"/>
    </linearGradient>
    <linearGradient id="accent" x1="0%" y1="100%" x2="100%" y2="0%">
      <stop offset="0%" stop-color="#059669"/>
      <stop offset="100%" stop-color="#34d399"/>
    </linearGradient>
  </defs>
  <rect width="1200" height="630" fill="url(#bg)"/>
  <circle cx="980" cy="120" r="180" fill="#10b981" opacity="0.08"/>
  <circle cx="1050" cy="520" r="240" fill="#34d399" opacity="0.06"/>
  <rect x="120" y="180" width="88" height="88" rx="22" fill="#0f172a" stroke="url(#accent)" stroke-width="3"/>
  <path fill="url(#accent)" d="M142 228V220h18c12 0 20 7 20 18 0 7-4 13-10 16l14 12h-17l-13-11v11h-12zm8-24h6c5 0 8-3 8-7s-3-7-8-7h-6v14z"/>
  <path fill="#ffffff" d="M176 220h10v32h-10v-32zm22 0c14 0 24 10 24 24s-10 24-24 24h-10v-48h10zm0 36c8 0 13-5 13-12s-5-12-13-12v24z"/>
  <path fill="none" stroke="#34d399" stroke-width="3" stroke-linecap="round" stroke-linejoin="round" d="M136 248l12-10 10 6 16-18 24 12"/>
  <text x="120" y="340" fill="#ffffff" font-family="Inter, Arial, sans-serif" font-size="72" font-weight="700" letter-spacing="-0.02em">SpendWise</text>
  <text x="120" y="410" fill="#94a3b8" font-family="Inter, Arial, sans-serif" font-size="32">Smart procurement. Controlled spend.</text>
  <rect x="120" y="460" width="220" height="4" rx="2" fill="url(#accent)"/>
</svg>
